<svg
  xmlns="http://www.w3.org/2000/svg"
  viewBox="0 0 6880 6890"
>
  <g id="l4ucaiyWGd5yEHG68lBEDI8" fill="rgb(23,255,29)" style="transform: none">
    <g style="transform: none">
      <path
        id="pO3dUZ5od"
        d="M3090 6880 c-279 -29 -649 -112 -760 -171 -19 -11 -38 -19 -42 -19 -13 0 -184 -69 -292 -117 -345 -155 -814 -491 -1075 -771 -282 -303 -502 -631 -640 -954 -126 -296 -241 -750 -272 -1071 -18 -191 -7 -645 20 -817 30 -197 89 -417 171 -645 127 -352 205 -514 360 -750 39 -58 70 -108 70 -111 0 -9 121 -166 198 -257 219 -259 607 -580 917 -759 292 -170 738 -332 1075 -392 228 -40 476 -52 778 -37 430 21 681 75 1059 227 313 125 490 224 797 443 198 141 307 234 451 382 361 373 586 732 756 1210 150 419 205 700 216 1104 13 482 -69 907 -264 1355 -211 488 -392 765 -708 1089 -156 159 -262 250 -461 392 -233 167 -325 224 -519 319 -397 195 -697 281 -1165 335 -160 19 -549 27 -670 15z m770 -108 l105 -18 -215 -8 c-298 -12 -290 -12 -435 3 -177 18 -201 26 -100 35 44 4 91 9 105 11 69 10 442 -6 540 -23z m-740 -113 c-148 -38 -406 -125 -540 -182 -58 -24 -134 -50 -170 -56 -155 -29 -473 -125 -609 -183 -24 -10 -45 -17 -47 -15 -6 5 131 105 226 165 109 69 335 181 444 221 73 26 242 60 366 74 19 2 127 4 240 5 l205 1 -115 -30z m1105 -14 c283 -48 401 -91 627 -228 99 -60 268 -182 268 -193 0 -2 -17 3 -37 12 -89 40 -389 135 -513 164 -89 20 -178 49 -260 85 -140 60 -279 110 -450 161 l-115 34 165 -4 c112 -4 214 -13 315 -31z m-634 -11 c145 -27 513 -134 556 -162 6 -4 -22 -6 -64 -4 -148 8 -393 -24 -566 -73 l-88 -26 -70 21 c-137 41 -271 62 -444 69 l-170 6 170 57 c94 30 213 65 265 76 265 58 285 60 411 36z m729 -257 c58 -10 96 -24 160 -61 128 -73 245 -156 345 -244 91 -80 211 -209 203 -218 -3 -2 -34 2 -69 10 -167 38 -379 45 -606 20 l-145 -17 -56 55 c-145 141 -320 264 -500 354 -57 28 -100 54 -95 57 15 10 223 49 303 58 96 10 363 2 460 -14z m-1185 -5 c22 -6 67 -16 100 -22 33 -7 64 -15 69 -17 4 -3 -46 -33 -112 -68 -179 -92 -323 -196 -468 -338 l-71 -69 -90 11 c-232 28 -444 23 -636 -15 -43 -9 -81 -13 -84 -10 -3 3 20 33 51 68 193 214 530 443 688 467 79 12 499 7 553 -7z m-1339 -15 c-79 -60 -193 -154 -249 -206 -34 -31 -96 -77 -137 -101 -79 -46 -227 -143 -295 -193 -57 -41 125 135 226 220 98 82 245 180 379 252 104 55 120 62 76 28z m383 -99 c-157 -109 -317 -259 -422 -393 -44 -58 -52 -63 -154 -104 -174 -70 -355 -175 -484 -283 -26 -21 -50 -38 -53 -38 -11 0 130 204 215 311 46 57 124 146 174 198 83 87 99 98 200 146 61 29 153 70 205 91 96 38 353 122 379 123 8 1 -19 -22 -60 -51z m2618 7 c152 -49 343 -125 451 -179 76 -38 198 -158 333 -326 98 -123 220 -299 193 -280 -12 8 -55 39 -95 68 -126 91 -252 162 -391 218 l-133 53 -58 73 c-108 135 -255 273 -401 376 -33 23 -54 42 -49 42 6 0 74 -20 150 -45z m573 -91 c83 -55 290 -226 290 -240 0 -3 -19 8 -42 24 -24 16 -88 55 -143 87 -55 32 -125 81 -155 109 -30 28 -80 73 -110 100 l-55 49 60 -33 c33 -18 103 -61 155 -96z m-1809 70 c117 -54 222 -114 317 -181 84 -61 255 -203 249 -209 -2 -2 -55 -17 -117 -33 -203 -52 -385 -128 -514 -215 l-67 -45 -61 41 c-120 80 -310 157 -519 212 l-120 32 68 60 c185 164 354 272 563 361 68 29 93 26 201 -23z m2194 -472 c247 -195 406 -404 536 -703 44 -101 122 -320 116 -326 -2 -2 -30 36 -62 84 -88 134 -216 301 -292 384 -39 41 -88 109 -112 154 -72 133 -201 317 -368 525 -28 34 -27 34 42 -14 39 -27 102 -74 140 -104z m-4462 116 c-162 -203 -271 -361 -370 -535 -39 -67 -95 -150 -125 -185 -100 -115 -179 -221 -277 -369 -53 -80 -102 -155 -109 -165 -22 -33 -4 37 49 201 66 198 187 446 270 551 119 151 319 338 498 466 70 50 79 55 64 36z m3532 -73 c92 -13 207 -35 263 -51 45 -13 170 -251 242 -460 39 -114 87 -311 77 -320 -3 -3 -18 1 -34 9 -150 77 -500 167 -649 167 -50 0 -51 1 -62 38 -41 137 -199 390 -350 562 l-40 45 97 11 c139 16 341 16 456 -1z m-2283 -11 l46 -6 -76 -92 c-130 -156 -231 -322 -292 -481 l-27 -70 -124 -13 c-182 -18 -359 -65 -532 -139 -43 -18 -80 -33 -82 -33 -5 0 32 162 55 244 42 150 124 333 209 468 l41 65 124 27 c68 15 155 31 193 36 70 9 382 5 465 -6z m1708 -75 c152 -174 248 -322 331 -514 24 -55 50 -105 58 -111 8 -6 56 -14 108 -18 170 -12 359 -59 551 -138 67 -28 124 -54 127 -58 2 -4 9 -71 16 -148 13 -172 1 -343 -37 -511 -15 -64 -26 -126 -26 -138 -1 -31 18 -53 115 -138 130 -113 268 -286 370 -465 l26 -46 -65 -104 c-121 -194 -237 -330 -393 -461 -65 -55 -65 -57 -26 -234 28 -123 30 -143 30 -360 0 -126 -4 -243 -8 -258 -19 -70 -418 -200 -682 -222 -113 -10 -109 -8 -140 -82 -94 -226 -182 -363 -367 -576 -41 -46 -49 -46 -222 -3 -173 44 -326 106 -466 190 -60 36 -117 66 -126 66 -9 0 -54 -23 -100 -51 -178 -107 -407 -197 -590 -231 l-67 -12 -34 40 c-92 106 -155 186 -203 257 -49 75 -142 258 -171 339 -7 20 -22 41 -33 47 -12 6 -78 15 -148 21 -196 15 -381 64 -570 149 -66 29 -67 30 -75 78 -4 26 -8 147 -8 268 1 201 3 231 28 345 15 69 27 135 27 147 0 15 -31 49 -103 112 -151 131 -247 247 -354 429 l-55 94 18 41 c28 63 155 249 231 339 37 43 114 120 171 170 85 74 103 94 98 112 -54 202 -60 247 -61 476 0 124 4 246 8 271 8 45 9 47 75 77 193 89 418 147 609 159 79 5 106 10 118 23 9 10 35 65 59 123 72 174 174 332 320 500 51 58 51 58 94 52 188 -28 449 -126 639 -241 39 -24 79 -44 88 -44 10 0 51 23 93 50 140 94 306 163 527 221 61 15 117 28 125 29 9 0 40 -28 70 -61z m1168 -99 c134 -69 254 -153 388 -269 78 -68 100 -93 130 -152 106 -211 178 -461 199 -693 l8 -79 -74 78 c-134 141 -282 256 -473 367 l-100 57 -23 118 c-34 168 -105 374 -183 528 l-67 133 39 -14 c22 -8 92 -41 156 -74z m-3827 -22 c-90 -167 -164 -388 -211 -628 -10 -54 -11 -55 -74 -88 -167 -87 -382 -248 -520 -392 l-69 -71 7 82 c16 194 81 435 168 619 39 83 55 105 131 177 136 130 284 234 451 318 82 41 153 75 158 75 5 0 -14 -42 -41 -92z m4628 -713 c99 -136 238 -368 251 -415 25 -94 42 -292 46 -525 l4 -250 -38 110 c-69 196 -125 313 -218 455 -41 64 -42 67 -49 175 -11 193 -58 427 -115 577 l-20 53 30 -35 c16 -19 65 -85 109 -145z m-5489 19 c-42 -133 -68 -270 -81 -439 l-12 -150 -47 -70 c-96 -143 -181 -325 -235 -503 l-23 -77 -7 39 c-10 52 1 493 15 579 18 116 167 387 347 630 36 48 67 86 69 84 2 -1 -10 -44 -26 -93z m5739 -44 c79 -155 125 -283 176 -485 59 -234 64 -271 21 -165 -18 47 -55 130 -81 185 -30 65 -60 153 -85 250 -21 83 -54 195 -74 250 -20 55 -36 102 -36 105 0 11 23 -30 79 -140z m-780 -128 c142 -94 327 -260 425 -382 27 -33 28 -37 21 -115 -17 -201 -84 -454 -169 -639 l-37 -80 -46 75 c-105 170 -257 349 -386 455 l-47 39 24 96 c37 146 49 280 43 482 l-5 178 46 -27 c26 -15 85 -52 131 -82z m-4336 46 c-4 -29 -8 -134 -7 -233 0 -180 13 -284 50 -410 l15 -50 -38 -29 c-123 -95 -305 -309 -409 -480 l-41 -68 -46 108 c-92 219 -142 416 -154 604 l-6 95 75 85 c79 89 169 173 278 255 67 52 266 175 282 175 5 0 5 -23 1 -52z m-998 -73 c-14 -50 -36 -146 -50 -215 -15 -79 -39 -158 -64 -215 -33 -77 -75 -199 -119 -345 -16 -54 -14 -6 3 113 29 190 99 418 203 655 24 57 46 101 48 99 2 -1 -8 -43 -21 -92z m6289 -635 c118 -358 134 -625 60 -989 -22 -108 -111 -409 -118 -399 -1 1 2 68 7 148 9 143 -4 469 -22 585 -5 28 -4 82 2 125 12 88 15 493 5 630 -6 86 -6 92 7 65 8 -16 34 -91 59 -165z m-5945 -167 c30 -116 83 -263 136 -378 l46 -99 -50 -106 c-89 -189 -150 -394 -175 -590 l-12 -95 -43 74 c-106 181 -181 375 -224 584 l-25 118 25 126 c41 212 113 404 226 601 l42 74 17 -115 c9 -63 26 -150 37 -194z m5606 145 c108 -215 193 -513 181 -633 -19 -187 -119 -480 -228 -673 -43 -74 -57 -79 -58 -17 -1 111 -95 431 -179 610 l-47 100 47 100 c87 184 152 401 180 594 14 101 11 103 104 -81z m-6049 -166 c0 -130 6 -288 13 -350 10 -91 10 -146 1 -274 -8 -98 -11 -249 -8 -386 6 -255 8 -254 -62 -33 -23 69 -52 182 -67 251 -23 114 -25 139 -19 282 8 239 40 426 108 646 17 56 32 102 32 102 1 0 1 -107 2 -238z m5714 -614 c81 -174 150 -434 165 -623 7 -94 6 -97 -128 -234 -147 -150 -276 -250 -460 -355 l-48 -28 7 39 c12 59 9 389 -4 478 -7 44 -22 117 -33 163 l-22 83 21 15 c121 84 271 252 385 431 40 62 73 112 75 113 2 0 21 -37 42 -82z m-5004 10 c122 -204 278 -384 427 -491 17 -12 17 -15 -2 -87 -11 -41 -25 -109 -32 -150 -14 -85 -18 -347 -6 -458 l7 -74 -57 33 c-196 109 -400 269 -522 410 l-64 74 6 95 c12 185 65 400 149 600 43 101 47 110 53 110 2 0 20 -28 41 -62z m5560 -348 c-3 -118 -12 -273 -21 -344 -14 -123 -17 -133 -67 -225 -28 -53 -82 -145 -120 -205 -71 -112 -208 -300 -214 -294 -2 2 10 45 26 94 44 139 69 274 82 448 l11 160 54 83 c92 141 191 369 224 518 l13 60 9 -40 c5 -22 6 -137 3 -255z m-6053 -126 c30 -61 80 -148 111 -193 51 -76 56 -89 56 -138 0 -152 46 -402 105 -572 37 -107 44 -112 -89 64 -97 128 -174 245 -239 365 -63 116 -77 216 -83 575 l-5 270 45 -131 c24 -72 69 -180 99 -240z m6247 -36 c-34 -198 -81 -376 -140 -523 -35 -90 -161 -347 -167 -342 -2 2 3 20 11 39 29 68 84 264 106 373 15 75 39 151 77 240 53 124 122 321 124 354 1 13 2 13 6 -1 2 -9 -5 -72 -17 -140z m-6477 -233 c27 -60 53 -121 57 -135 14 -41 79 -324 76 -327 -5 -6 -97 208 -121 283 -22 67 -71 258 -80 314 l-4 25 11 -25 c6 -14 34 -74 61 -135z m5883 -257 c-28 -197 -92 -410 -172 -569 -73 -146 -399 -396 -664 -509 -40 -16 -70 -26 -68 -22 2 4 20 37 40 73 87 151 167 378 209 588 l22 112 46 26 c212 119 352 222 491 362 123 124 121 125 96 -61z m-5081 -145 c55 -39 150 -99 210 -133 61 -35 112 -64 113 -66 2 -1 15 -56 28 -121 35 -173 98 -358 174 -510 78 -156 81 -154 -77 -77 -177 87 -302 172 -462 313 -67 59 -80 77 -127 176 -93 192 -160 429 -179 635 l-7 75 113 -111 c63 -60 159 -142 214 -181z m5370 -3 c-68 -226 -182 -477 -295 -650 -95 -144 -279 -319 -490 -466 -78 -54 -83 -56 -57 -24 168 209 301 401 383 555 26 50 74 119 106 155 80 90 216 273 301 407 40 61 73 110 74 109 2 -1 -8 -40 -22 -86z m-5747 -292 c44 -57 109 -135 144 -174 36 -39 86 -108 113 -155 84 -146 259 -399 334 -483 34 -38 15 -27 -94 55 -267 199 -466 426 -576 654 -60 125 -159 389 -159 425 0 8 35 -38 79 -102 43 -64 115 -163 159 -220z m4708 -79 c-41 -166 -92 -302 -162 -440 -88 -172 -98 -182 -195 -209 -138 -37 -311 -53 -509 -46 -96 3 -187 9 -202 12 l-27 6 68 82 c141 168 237 322 301 482 l33 81 111 6 c139 7 302 48 481 120 72 29 131 50 133 47 1 -4 -13 -67 -32 -141z m-3853 106 c168 -74 388 -128 573 -141 l101 -7 18 -51 c52 -149 187 -368 322 -522 l53 -62 -27 -6 c-16 -4 -120 -9 -233 -12 -219 -7 -377 7 -509 45 l-65 18 -63 104 c-34 57 -86 160 -114 229 -61 147 -137 430 -115 430 2 0 29 -11 59 -25z m4211 -537 c-90 -131 -232 -311 -333 -419 -78 -84 -141 -120 -371 -212 -116 -46 -410 -141 -416 -134 -2 2 34 29 80 61 152 102 320 262 419 397 36 49 49 58 107 78 158 55 425 206 535 305 22 19 44 35 48 36 5 0 -26 -51 -69 -112z m-4470 -54 c116 -73 250 -140 357 -178 84 -30 87 -33 150 -111 88 -111 216 -234 333 -321 54 -41 93 -74 87 -74 -20 0 -260 80 -362 121 -164 64 -300 136 -347 182 -95 92 -261 296 -362 447 l-44 65 49 -38 c28 -20 90 -62 139 -93z m2246 -10 c141 -89 323 -161 519 -205 55 -13 101 -26 101 -30 0 -15 -197 -173 -300 -241 -105 -70 -259 -150 -357 -184 l-52 -18 -78 33 c-184 79 -350 186 -525 336 l-91 79 124 32 c198 51 424 147 526 224 21 16 40 29 42 29 2 1 43 -24 91 -55z m-2372 -251 c50 -38 139 -97 198 -133 61 -37 144 -99 192 -143 46 -43 118 -105 160 -139 95 -74 95 -75 52 -53 -123 63 -314 189 -460 306 -80 64 -252 229 -238 229 3 0 47 -30 96 -67z m3885 13 c-15 -27 -160 -173 -237 -238 -93 -80 -206 -157 -341 -232 l-100 -55 -161 -12 c-125 -10 -193 -10 -303 0 -120 10 -274 36 -331 57 -8 3 27 25 85 53 182 87 361 211 512 355 l73 68 75 -11 c195 -29 472 -23 655 14 36 7 69 13 73 14 4 0 4 -5 0 -13z m-2773 -30 c170 -1 269 3 323 13 l77 14 73 -69 c155 -149 290 -247 470 -340 87 -45 115 -63 101 -67 -184 -56 -470 -69 -737 -35 -80 10 -98 16 -195 72 -151 86 -289 192 -414 319 -60 59 -108 111 -108 116 0 4 37 1 83 -7 57 -11 157 -15 327 -16z m3419 -52 c-26 -31 -218 -192 -275 -231 -71 -48 -261 -163 -269 -163 -3 0 22 23 57 51 35 29 92 80 128 114 39 37 106 85 165 118 55 31 123 72 150 91 57 40 63 42 44 20z m-3921 -278 c84 -43 457 -159 613 -191 43 -9 116 -34 162 -55 123 -57 313 -126 482 -175 l150 -44 -163 -1 c-89 0 -206 5 -260 11 -122 13 -326 59 -417 94 -141 53 -397 205 -544 324 -65 52 -71 62 -23 37z m3377 -14 c-159 -134 -472 -319 -603 -357 -215 -63 -442 -95 -667 -95 l-150 1 152 44 c162 48 314 102 428 154 39 18 124 43 190 57 161 34 400 105 538 159 122 48 126 49 112 37z m-1577 -177 c139 -37 260 -55 422 -63 l145 -7 -160 -53 c-189 -62 -440 -123 -510 -123 -54 0 -203 28 -355 67 -104 27 -361 112 -372 122 -4 4 71 8 165 8 181 2 278 15 442 58 50 13 99 22 110 20 11 -2 62 -16 113 -29z m170 -342 c122 -3 221 -8 218 -10 -10 -10 -252 -43 -361 -49 -127 -7 -401 9 -520 30 l-70 12 145 8 c80 4 172 11 205 16 33 5 83 6 110 4 28 -2 150 -7 273 -11z"
      ></path>
      <path
        id="pyFlpx5JC"
        d="M2470 4230 l0 -450 448 2 447 3 3 448 2 447 -450 0 -450 0 0 -450z"
      ></path>
      <path
        id="psF4MDUAx"
        d="M3490 4230 l0 -450 450 0 450 0 0 450 0 450 -450 0 -450 0 0 -450z"
      ></path>
      <path
        id="pcxM6fHzz"
        d="M3470 3457 l0 -227 223 2 222 3 0 223 0 223 -223 2 -222 2 0 -228z"
      ></path>
      <path
        id="p1Huub9Oyu"
        d="M2470 3210 l0 -450 450 0 450 0 -2 448 -3 447 -447 3 -448 2 0 -450z"
      ></path>
      <path
        id="pOHUKjyRR"
        d="M4007 3603 c-4 -3 -7 -107 -7 -230 l0 -223 -230 0 -230 0 0 -220 0 -220 450 0 450 0 0 450 0 450 -213 0 c-118 0 -217 -3 -220 -7z"
      ></path>
      <path
        id="p6WiRuJSy"
        d="M2220 2661 c41 -22 158 -82 260 -134 l185 -96 3 -193 2 -193 230 3 230 3 0 65 c0 36 3 64 8 62 4 -2 25 -12 47 -22 22 -10 69 -32 105 -48 36 -16 82 -37 102 -46 32 -15 38 -22 38 -50 l0 -32 123 64 c67 35 257 132 422 216 646 329 710 362 719 371 6 5 -238 9 -617 9 l-627 0 0 30 0 30 -652 0 -653 -1 75 -38z"
      ></path>
    </g>
  </g>
</svg>
